<!DOCTYPE svg PUBLIC "-//W3C//DTD SVG 1.1//EN" "http://www.w3.org/Graphics/SVG/1.1/DTD/svg11.dtd">

<!-- Uploaded to: SVG Repo, www.svgrepo.com, Transformed by: SVG Repo Mixer Tools -->
<svg width="800px" height="800px" viewBox="0 0 24.00 24.00" xmlns="http://www.w3.org/2000/svg" fill="#000000" stroke="#57b97d">

<g id="SVGRepo_bgCarrier" stroke-width="0"/>

<g id="SVGRepo_tracerCarrier" stroke-linecap="round" stroke-linejoin="round"/>

<g id="SVGRepo_iconCarrier"> <defs> <style>.cls-1,.cls-2{fill:none;stroke:#020202;stroke-miterlimit:10;stroke-width:0.4800000000000001;}.cls-2{stroke-linecap:square;}</style> </defs> <g id="computer"> <rect class="cls-1" x="1.5" y="1.5" width="21" height="16.23" rx="2.86"/> <polygon class="cls-1" points="15.82 22.5 8.18 22.5 9.14 17.73 14.86 17.73 15.82 22.5"/> <line class="cls-1" x1="18.68" y1="22.5" x2="5.32" y2="22.5"/> <path class="cls-2" d="M8.18,9.14h0A2.86,2.86,0,0,1,11,12v1a0,0,0,0,1,0,0H5.32a0,0,0,0,1,0,0V12A2.86,2.86,0,0,1,8.18,9.14Z"/> <circle class="cls-2" cx="8.18" cy="7.23" r="1.91"/> <path class="cls-2" d="M19.64,13h0Z"/> <line class="cls-1" x1="13.91" y1="7.23" x2="19.64" y2="7.23"/> <line class="cls-1" x1="16.77" y1="4.36" x2="16.77" y2="10.09"/> </g> </g>

</svg>